<?xml version="1.0" encoding="UTF-8" standalone="no"?>
<svg width="515px" height="44px" viewBox="0 0 515 44" version="1.1" xmlns="http://www.w3.org/2000/svg" xmlns:xlink="http://www.w3.org/1999/xlink" xmlns:sketch="http://www.bohemiancoding.com/sketch/ns">
    <!-- Generator: Sketch 3.5.2 (25235) - http://www.bohemiancoding.com/sketch -->
    <title>services</title>
    <desc>Created with Sketch.</desc>
    <defs></defs>
    <g id="Page-2" stroke="none" stroke-width="1" fill="none" fill-rule="evenodd" sketch:type="MSPage">
        <g id="services" sketch:type="MSLayerGroup">
            <path d="M22.3107952,28.7675647 L21.8670447,14.2624693 C21.8393103,13.901922 21.5619662,13.5968435 21.2014189,13.5968435 C20.868606,13.5968435 20.5635275,13.901922 20.5635275,14.2624693 L20.1752458,28.7675647 L20.5635275,35.4515571 C20.5912619,35.8121044 20.868606,36.0894485 21.2014189,36.0894485 C21.5619662,36.0894485 21.8393103,35.8121044 21.8670447,35.4515571 L22.3107952,28.7675647 Z M30.381508,28.7952991 L30.0486951,12.542936 C30.0486951,12.2655919 29.9100231,12.0159823 29.6881478,11.8773102 C29.5494757,11.794107 29.4108037,11.7386382 29.2443973,11.7386382 C29.0779908,11.7386382 28.9393188,11.794107 28.8006467,11.8773102 C28.5787715,12.0159823 28.4400994,12.2655919 28.4400994,12.542936 L28.412365,12.7093425 L28.1350209,28.7675647 C28.1350209,28.7675647 28.1350209,28.7952991 28.4400994,35.312885 C28.4400994,35.312885 28.4400994,35.312885 28.4400994,35.3406194 C28.4400994,35.5070259 28.4955682,35.6734323 28.6065059,35.8121044 C28.7729123,36.0062452 28.9947876,36.1171829 29.2443973,36.1171829 C29.4662725,36.1171829 29.6604134,36.0062452 29.7990854,35.8675732 C29.9654919,35.7289012 30.0486951,35.5347603 30.0486951,35.312885 L30.0764295,34.6472592 L30.381508,28.7952991 Z M1.09397308,25.2175605 C1.06623867,25.0788885 0.983035445,24.9679508 0.844363405,24.9679508 C0.705691364,24.9679508 0.62248814,25.0788885 0.594753732,25.2175605 L0.123268795,28.7675647 L0.594753732,32.2621002 C0.62248814,32.4007722 0.705691364,32.5117098 0.844363405,32.5117098 C0.983035445,32.5117098 1.06623867,32.4007722 1.09397308,32.2621002 L1.64866124,28.7675647 L1.09397308,25.2175605 Z M3.47913217,23.0265423 C3.45139776,22.8878702 3.34046013,22.7769326 3.20178809,22.7769326 C3.06311605,22.7769326 2.95217842,22.8878702 2.95217842,23.0265423 C2.95217842,23.0265423 2.95217842,23.0265423 2.31428703,28.7675647 L2.95217842,34.3699152 C2.95217842,34.5363216 3.06311605,34.6472592 3.20178809,34.6472592 C3.34046013,34.6472592 3.45139776,34.5363216 3.47913217,34.3976496 L4.20022678,28.7675647 L3.47913217,23.0265423 Z M6.03069771,21.9726348 C6.03069771,21.7784939 5.89202567,21.6398219 5.72561922,21.6398219 C5.55921278,21.6398219 5.42054073,21.7784939 5.39280633,21.9726348 L4.81038376,28.7675647 L5.39280633,35.3406194 C5.42054073,35.5070259 5.55921278,35.6456979 5.72561922,35.6456979 C5.89202567,35.6456979 6.03069771,35.5070259 6.03069771,35.3406194 L6.72405791,28.7675647 L6.03069771,21.9726348 Z M8.63773207,21.7784939 C8.60999766,21.5566186 8.44359121,21.4179466 8.24945036,21.4179466 C8.0553095,21.4179466 7.88890305,21.5566186 7.88890305,21.7784939 L7.30648048,28.7675647 L7.88890305,35.5347603 C7.88890305,35.7566356 8.0553095,35.8953076 8.24945036,35.8953076 C8.44359121,35.8953076 8.60999766,35.7566356 8.63773207,35.5347603 L9.27562346,28.7675647 L8.63773207,21.7784939 Z M11.2447664,22.2777132 C11.217032,22.055838 11.0228912,21.8616971 10.8010159,21.8616971 C10.5791406,21.8616971 10.3849998,22.055838 10.3849998,22.2777132 L9.83031162,28.7675647 L10.3849998,35.5902291 C10.3849998,35.8398388 10.5791406,36.0339796 10.8010159,36.0339796 C11.0228912,36.0339796 11.217032,35.8398388 11.2447664,35.5902291 L11.827189,28.7675647 L11.2447664,22.2777132 Z M13.8518008,18.2284897 C13.8518008,17.9511456 13.6299255,17.7292703 13.3803158,17.7292703 C13.1029718,17.7292703 12.9088309,17.9511456 12.8810965,18.2284897 C12.8810965,18.2284897 12.8810965,18.2284897 12.3818772,28.7675647 L12.8810965,35.5902291 C12.9088309,35.8675732 13.1029718,36.0894485 13.3803158,36.0894485 C13.6299255,36.0894485 13.8518008,35.8675732 13.8518008,35.5902291 L14.4342234,28.7675647 L13.8518008,18.2284897 Z M16.4588351,15.8433306 C16.4588351,15.5382521 16.2092255,15.3163768 15.9318814,15.3163768 C15.6268029,15.3163768 15.4049276,15.5382521 15.3771932,15.8433306 C15.3771932,15.8433306 15.3771932,15.8433306 14.9334427,28.8230336 L15.3771932,35.5902291 C15.4049276,35.8953076 15.6268029,36.1171829 15.9318814,36.1171829 C16.2092255,36.1171829 16.4588351,35.8953076 16.4588351,35.5902291 L16.9857889,28.8230336 L16.4588351,15.8433306 Z M19.1768071,14.7339543 C19.1490727,14.4011414 18.8994631,14.1237973 18.5666502,14.1237973 C18.2615717,14.1237973 17.9842276,14.4011414 17.9842276,14.7339543 L17.5404771,28.7675647 L17.9842276,35.4792915 C18.011962,35.8121044 18.2615717,36.0617141 18.5666502,36.0617141 C18.8994631,36.0617141 19.1490727,35.8121044 19.1768071,35.4792915 L19.6760265,28.7675647 L19.1768071,14.7339543 Z M24.5572823,14.6230166 C24.5572823,14.2347349 24.2522038,13.9296564 23.8639221,13.9296564 C23.4756404,13.9296564 23.1705619,14.2347349 23.1705619,14.6230166 L22.7822802,28.7675647 L23.1705619,35.3960883 C23.1982963,35.78437 23.4756404,36.0894485 23.8639221,36.0894485 C24.2522038,36.0894485 24.5572823,35.78437 24.5572823,35.3960883 L24.9732984,28.7675647 L24.5572823,14.6230166 Z M27.3029887,15.1499704 C27.2752543,14.7062198 26.9701758,14.373407 26.5541597,14.373407 C26.1381436,14.373407 25.8053307,14.7062198 25.7775963,15.1499704 L25.4447834,28.7952991 L25.7775963,35.3406194 C25.8053307,35.7566356 26.1381436,36.0894485 26.5541597,36.0894485 C26.9701758,36.0894485 27.3029887,35.7566356 27.3029887,35.3406194 L27.6912704,28.7952991 L27.3029887,15.1499704 Z M33.1826832,28.7952991 L32.7944015,11.0730124 C32.7666671,10.7679339 32.6002606,10.4905898 32.350651,10.3519178 C32.2397133,10.2687146 32.0733069,10.2132457 31.9346348,10.2132457 C31.7127596,10.2132457 31.5186187,10.296449 31.3799467,10.4073866 C31.1858058,10.573793 31.0748682,10.8234027 31.0471338,11.0730124 L31.0471338,11.1562156 L30.7143209,28.7952991 L30.8807273,32.0402249 L31.0471338,35.2019474 C31.0748682,35.6734323 31.4631499,36.0617141 31.9346348,36.0617141 C32.4061198,36.0617141 32.7944015,35.6734323 32.7944015,35.2019474 L32.7944015,35.2019474 L33.1826832,28.7952991 Z M64.023345,28.2683454 C64.023345,23.9140433 60.5010751,20.3917735 56.1745075,20.3917735 C55.0928656,20.3917735 54.0666925,20.6136488 53.1237226,21.0019305 C52.4858312,13.9296564 46.5506679,8.38277481 39.3119874,8.38277481 C37.5369853,8.38277481 35.817452,8.71558771 34.2920595,9.32574468 C33.6819025,9.54761995 33.5154961,9.76949521 33.5154961,10.2409801 L33.5154961,35.174213 C33.5154961,35.6734323 33.9037778,36.0339796 34.3752628,36.0894485 L56.1745075,36.0894485 C60.5010751,36.0894485 64.023345,32.594913 64.023345,28.2683454 L64.023345,28.2683454 Z" id="" fill="#F6A623" sketch:type="MSShapeGroup"></path>
            <path d="M130.210351,30.958583 C130.210351,31.7351464 129.600194,32.2898346 128.906834,32.2898346 C128.546287,32.2898346 128.324411,32.1788969 127.991598,31.9847561 C124.913079,30.1265507 121.057996,29.128112 116.981038,29.128112 C114.679083,29.128112 112.404861,29.4331905 110.241577,29.8769411 C109.908764,29.9601443 109.465014,30.0988163 109.215404,30.0988163 C108.383372,30.0988163 107.856418,29.4331905 107.856418,28.7398303 C107.856418,27.8523293 108.383372,27.4363131 109.021263,27.2976411 C111.656032,26.7152185 114.263066,26.3546712 116.981038,26.3546712 C121.640419,26.3546712 125.80058,27.4085787 129.378319,29.5441282 C129.905273,29.8769411 130.210351,30.1820195 130.210351,30.958583 L130.210351,30.958583 Z M132.872854,24.9956852 C132.872854,25.9109207 132.15176,26.6597497 131.20879,26.6597497 C130.765039,26.6597497 130.459961,26.4656089 130.154882,26.2992024 C126.688081,24.2468562 121.890029,22.8601358 116.620491,22.8601358 C113.930254,22.8601358 111.600563,23.2484175 109.659155,23.7753713 C109.243139,23.8863089 109.021263,23.9972465 108.632982,23.9972465 C107.717746,23.9972465 106.968917,23.2484175 106.968917,22.3331821 C106.968917,21.4179466 107.412668,20.8077896 108.300169,20.5581799 C110.685328,19.8925542 113.125956,19.3933348 116.703694,19.3933348 C122.27831,19.3933348 127.658785,20.7800552 131.90215,23.3038863 C132.59551,23.7199025 132.872854,24.2468562 132.872854,24.9956852 L132.872854,24.9956852 Z M135.86817,18.117552 C135.86817,19.2823972 134.9252,20.1144294 133.871293,20.1144294 C133.427542,20.1144294 133.150198,20.0034918 132.761917,19.7816165 C128.906834,17.4796607 122.916202,16.2038779 117.147445,16.2038779 C114.235332,16.2038779 111.323219,16.481222 108.632982,17.230051 C108.327903,17.3132542 107.939621,17.4519262 107.523605,17.4519262 C106.386495,17.4519262 105.526728,16.5644252 105.526728,15.4273145 C105.526728,14.2624693 106.247822,13.5968435 107.024386,13.3749683 C110.047436,12.4874672 113.431034,12.0714511 117.11971,12.0714511 C123.387687,12.0714511 129.960741,13.3749683 134.758794,16.1761435 C135.42442,16.5644252 135.86817,17.0913789 135.86817,18.117552 L135.86817,18.117552 Z M141.553724,22.2499788 C141.553724,10.4905898 132.013088,0.949953449 120.253699,0.949953449 C108.49431,0.949953449 98.9536731,10.4905898 98.9536731,22.2499788 C98.9536731,34.0093679 108.49431,43.5500042 120.253699,43.5500042 C132.013088,43.5500042 141.553724,34.0093679 141.553724,22.2499788 L141.553724,22.2499788 Z" id="" fill="#00E168" sketch:type="MSShapeGroup"></path>
            <path d="M216.879036,0.949953449 L178.993835,0.949953449 C177.690318,0.949953449 176.63641,2.00386096 176.63641,3.30737813 L176.63641,41.1925795 C176.63641,42.4960967 177.690318,43.5500042 178.993835,43.5500042 L199.378625,43.5500042 L199.378625,27.0480314 L193.831743,27.0480314 L193.831743,20.6136488 L199.378625,20.6136488 L199.378625,15.871065 C199.378625,10.3796522 202.762223,7.38433612 207.671213,7.38433612 C210.000903,7.38433612 212.025515,7.55074257 212.607938,7.63394579 L212.607938,13.3749683 L209.22434,13.4027027 C206.534102,13.4027027 206.034883,14.650751 206.034883,16.5089564 L206.034883,20.6136488 L212.386062,20.6136488 L211.55403,27.0480314 L206.034883,27.0480314 L206.034883,43.5500042 L216.879036,43.5500042 C218.182554,43.5500042 219.236461,42.4960967 219.236461,41.1925795 L219.236461,3.30737813 C219.236461,2.00386096 218.182554,0.949953449 216.879036,0.949953449 L216.879036,0.949953449 Z" id="" fill="#425B9F" sketch:type="MSShapeGroup"></path>
            <path d="M299.2235,8.71558771 C297.614904,9.40894791 295.867636,9.90816725 294.0649,10.1023081 C295.923105,8.99293179 297.33756,7.24566408 298.003186,5.16558347 C296.283652,6.19175657 294.342244,6.94058559 292.317632,7.3288673 C290.681302,5.5815996 288.351612,4.49995768 285.772312,4.49995768 C280.807853,4.49995768 276.814098,8.52144685 276.814098,13.4581715 C276.814098,14.1515317 276.897301,14.8448919 277.035973,15.5105177 C269.603152,15.122236 262.974628,11.5722317 258.564858,6.13628776 C257.788294,7.46753934 257.344544,8.99293179 257.344544,10.6569963 C257.344544,13.76325 258.925405,16.5089564 261.338298,18.117552 C259.868375,18.0620832 258.481654,17.6460671 257.289075,16.9804413 L257.289075,17.0913789 C257.289075,21.445681 260.367594,25.0511541 264.472286,25.8831863 C263.723457,26.0773272 262.91916,26.1882648 262.114862,26.1882648 C261.532439,26.1882648 260.977751,26.132796 260.423063,26.0495927 C261.560174,29.599597 264.860568,32.1788969 268.798854,32.2621002 C265.720335,34.6749937 261.865252,36.0894485 257.677356,36.0894485 C256.928527,36.0894485 256.235167,36.0617141 255.514073,35.9785108 C259.480093,38.5300764 264.194942,40 269.270339,40 C285.744577,40 294.75826,26.3546712 294.75826,14.512079 C294.75826,14.1237973 294.75826,13.7355156 294.730526,13.3472339 C296.477793,12.0714511 298.003186,10.4905898 299.2235,8.71558771 L299.2235,8.71558771 Z" id="" fill="#53C0F8" sketch:type="MSShapeGroup"></path>
            <path d="M348.172283,36.4499958 C348.172283,37.6703097 347.173844,38.6687484 345.95353,38.6687484 C344.733216,38.6687484 343.734778,37.6703097 343.734778,36.4499958 C343.734778,35.2296818 344.733216,34.2312431 345.95353,34.2312431 C347.173844,34.2312431 348.172283,35.2296818 348.172283,36.4499958 L348.172283,36.4499958 Z M353.94104,32.0124905 C353.94104,32.4839754 353.525024,32.8999915 353.053539,32.8999915 L338.853522,32.8999915 C338.382037,32.8999915 337.966021,32.4839754 337.966021,32.0124905 L337.966021,12.4874672 C337.966021,12.0159823 338.382037,11.5999661 338.853522,11.5999661 L353.053539,11.5999661 C353.525024,11.5999661 353.94104,12.0159823 353.94104,12.4874672 L353.94104,32.0124905 Z M348.616033,8.49371244 C348.616033,8.74332211 348.421893,8.93746297 348.172283,8.93746297 L343.734778,8.93746297 C343.485168,8.93746297 343.291027,8.74332211 343.291027,8.49371244 C343.291027,8.24410277 343.485168,8.04996191 343.734778,8.04996191 L348.172283,8.04996191 C348.421893,8.04996191 348.616033,8.24410277 348.616033,8.49371244 L348.616033,8.49371244 Z M356.603543,8.04996191 C356.603543,6.10855335 354.994947,4.49995768 353.053539,4.49995768 L338.853522,4.49995768 C336.912113,4.49995768 335.303518,6.10855335 335.303518,8.04996191 L335.303518,36.4499958 C335.303518,38.3914043 336.912113,40 338.853522,40 L353.053539,40 C354.994947,40 356.603543,38.3914043 356.603543,36.4499958 L356.603543,8.04996191 Z" id="" fill="#858585" sketch:type="MSShapeGroup"></path>
            <path d="M436.913487,21.9726348 C436.913487,10.573793 426.346678,0.949953449 413.83846,0.949953449 C401.330242,0.949953449 390.763432,10.573793 390.763432,21.9726348 C390.763432,24.9956852 391.31812,27.9355325 392.427497,30.6812389 L392.982185,32.0402249 L398.11305,32.9554604 C398.917348,35.9785108 401.663054,38.2249979 404.963449,38.2249979 L404.963449,39.1124989 C404.963449,39.6117183 405.351731,40 405.85095,40 L407.625952,40 C408.125172,40 408.513453,39.6117183 408.513453,39.1124989 L408.513453,23.1374799 C408.513453,22.6382606 408.125172,22.2499788 407.625952,22.2499788 L405.85095,22.2499788 C405.351731,22.2499788 404.963449,22.6382606 404.963449,23.1374799 L404.963449,24.024981 C402.300946,24.024981 399.99899,25.4949046 398.778676,27.6581884 L396.892736,27.3253755 C396.365783,25.6058422 396.088438,23.8308401 396.088438,21.9726348 C396.088438,13.5968435 404.381026,6.2749598 413.83846,6.2749598 C423.295893,6.2749598 431.588481,13.5968435 431.588481,21.9726348 C431.588481,23.8308401 431.311137,25.6058422 430.784183,27.3253755 L428.898243,27.6581884 C427.677929,25.4949046 425.375973,24.024981 422.71347,24.024981 L422.71347,23.1374799 C422.71347,22.6382606 422.325188,22.2499788 421.825969,22.2499788 L420.050967,22.2499788 C419.551748,22.2499788 419.163466,22.6382606 419.163466,23.1374799 L419.163466,39.1124989 C419.163466,39.6117183 419.551748,40 420.050967,40 L421.825969,40 C422.325188,40 422.71347,39.6117183 422.71347,39.1124989 L422.71347,38.2249979 C426.013865,38.2249979 428.759571,35.9785108 429.563869,32.9554604 L434.694734,32.0402249 L435.249423,30.6812389 C436.358799,27.9355325 436.913487,24.9956852 436.913487,21.9726348 L436.913487,21.9726348 Z" id="" fill="#F6A623" sketch:type="MSShapeGroup"></path>
            <path d="M500.206202,13.9249725 C500.206202,12.0667672 501.70386,10.7077812 503.506596,10.7077812 C504.338629,10.7077812 505.531208,10.6800467 506.196834,11.2902037 L506.196834,11.3179381 C506.890194,11.8448919 507.278476,12.4827833 507.694492,13.2593467 L511.272231,10.5136403 C510.689808,9.70934247 510.13512,8.76637259 509.386291,8.07301239 L509.414025,8.07301239 C507.472617,6.35347909 506.002693,6.27027587 503.562065,6.18707264 C499.485107,6.0484006 495.630024,9.57067043 495.630024,13.6753628 C495.630024,13.9804413 495.657759,14.2855198 495.713228,14.5905983 C497.432761,25.4347518 509.552697,20.9417777 509.552697,27.5425669 C509.552697,30.5933517 507.001132,32.4515571 504.116753,32.4515571 C500.955031,32.4515571 498.87495,29.456241 497.654636,26.9046755 C493.161662,17.6691176 492.496036,6.18707264 479.238989,6.18707264 C471.25148,6.18707264 464.373347,13.5366908 464.373347,21.4409971 C464.373347,29.594913 470.641323,37 479.017114,37 C483.149541,37 486.976889,36.0292957 489.778064,32.78437 L489.75033,32.7566356 C490.221815,32.174213 490.665565,31.5085872 490.970644,30.815227 L488.640954,26.599597 C488.030797,27.7921765 487.198764,28.846084 486.338998,29.8167883 C484.563996,31.8968689 481.818289,32.4515571 479.18352,32.4515571 C473.220623,32.4515571 468.921789,27.1265507 468.921789,21.3855283 C468.921789,15.9773187 473.747576,10.7077812 479.238989,10.7077812 C485.423762,10.7077812 487.670249,13.9249725 489.805799,19.4163853 C492.385099,26.0726432 495.15854,37 504.089019,37 C509.469494,37 514.073406,33.1171829 514.073406,27.5980357 C514.073406,22.1620917 509.691369,19.6937294 505.059723,18.3902122 C502.979643,17.8077896 501.232375,17.3363047 500.483546,15.0620832 C500.428077,14.8679424 500.206202,14.0913789 500.206202,13.9249725 L500.206202,13.9249725 Z" id="" fill="#D0011B" sketch:type="MSShapeGroup"></path>
        </g>
    </g>
</svg>