<?xml version="1.0" encoding="UTF-8" standalone="no"?>
<svg width="68px" height="11px" viewBox="0 0 68 11" version="1.1" xmlns="http://www.w3.org/2000/svg" xmlns:xlink="http://www.w3.org/1999/xlink" xmlns:sketch="http://www.bohemiancoding.com/sketch/ns">
    <!-- Generator: Sketch 3.5.2 (25235) - http://www.bohemiancoding.com/sketch -->
    <title>waves</title>
    <desc>Created with Sketch.</desc>
    <defs></defs>
    <g id="Page-1" stroke="none" stroke-width="1" fill="none" fill-rule="evenodd" sketch:type="MSPage">
        <g id="Desktop" sketch:type="MSArtboardGroup" transform="translate(-607.000000, -992.000000)" fill="#18E1DF">
            <g id="work" sketch:type="MSLayerGroup" transform="translate(0.000000, 822.000000)">
                <g id="Group-4" transform="translate(227.000000, 48.000000)" sketch:type="MSShapeGroup">
                    <path d="M390.343679,127.087532 C391.068449,126.588102 392.471701,126.588329 393.1814,127.081783 L398.892678,131.052843 C401.274893,132.709201 404.884645,132.699586 407.267525,131.026227 L412.864834,127.095561 C413.574828,126.596973 414.931845,126.595671 415.636367,127.09264 L421.20862,131.023307 C423.575985,132.693245 427.201212,132.705741 429.590037,131.057933 L435.346879,127.086873 C436.060415,126.594677 437.423122,126.604301 438.11224,127.100012 L444.001425,131.336341 C445.257245,132.239704 447.02225,131.973762 447.953722,130.728917 L447.439844,131.415678 C448.366816,130.176844 448.100926,128.440749 446.844412,127.536888 L440.955228,123.300559 C438.59815,121.605017 434.978283,121.579452 432.581447,123.232785 L426.824605,127.203845 C426.107157,127.69874 424.718393,127.693953 424.015423,127.198078 L418.44317,123.267412 C416.061711,121.587531 412.449403,121.590996 410.066328,123.264492 L404.469019,127.195158 C403.752043,127.698649 402.382376,127.702297 401.67281,127.208935 L395.961531,123.237875 C393.589542,121.588627 389.966048,121.588042 387.580157,123.232127 L381.299325,127.560162 C380.029443,128.43522 379.726083,130.157557 380.631518,131.420735 L380.132004,130.72386 C381.033066,131.980937 382.798489,132.286818 384.062846,131.415567 L390.343679,127.087532 Z" id="waves"></path>
                </g>
            </g>
        </g>
    </g>
</svg>